<svg width="44" height="45" viewBox="0 0 44 45" fill="none" xmlns="http://www.w3.org/2000/svg">
<g clip-path="url(#clip0_10_175)">
<path d="M28.5063 3.87465C29.1149 3.51589 29.6731 3.64666 30.1543 3.935C30.9858 4.43459 31.8324 4.94087 32.565 5.56954C35.8357 8.38261 38.7829 11.5075 41.3228 15.0012C44.7896 19.769 44.7964 25.3952 41.3378 30.1362C37.9129 34.8285 33.8357 38.8704 29.0981 42.2351C24.9975 45.1487 19.4468 45.2862 15.259 42.4279C10.1509 38.9409 5.79046 34.6508 2.25987 29.5679C-0.838207 25.1085 -0.724208 19.5829 2.43757 15.1571C5.80723 10.448 9.83405 6.38429 14.5264 2.98278C17.0595 1.1454 19.8827 0.287059 23.0126 0.545232C24.6522 0.679348 26.1895 1.15043 27.5021 2.19318C28.0302 2.61229 28.4862 3.08672 28.5063 3.87633V3.87465ZM28.1241 4.3977C27.6849 4.73635 27.0562 4.66761 26.4376 4.57205C25.648 4.45135 24.8668 4.27029 24.0771 4.14791C21.5055 3.74892 19.031 3.98362 16.8047 5.45219C12.0486 8.58714 7.9732 12.4547 4.62533 17.0582C2.11569 20.5083 2.10228 24.7581 4.53313 28.277C7.72844 32.9023 11.6496 36.8336 16.2196 40.0993C19.8206 42.6726 24.1526 42.6911 27.772 40.1395C32.4527 36.8419 36.4393 32.8252 39.7117 28.1295C42.0453 24.7799 42.057 20.4731 39.762 17.0917C37.6128 13.9266 35.0948 11.0716 32.223 8.53517C31.2054 7.6366 30.1459 6.78496 29.1618 5.85286C28.7528 5.4656 28.4912 4.92243 28.1258 4.39603L28.1241 4.3977Z" fill="white"/>
<path d="M26.3968 24.8C25.344 24.6491 24.3382 24.4161 23.3256 24.3792C20.7523 24.2853 18.1772 24.2803 15.6022 24.2417C14.769 24.2283 13.9341 24.235 13.101 24.1914C12.94 24.1831 12.6584 23.9919 12.6533 23.8746C12.6215 23.137 12.6265 22.396 12.6835 21.66C12.6919 21.541 13.0104 21.3549 13.1881 21.3515C14.5276 21.3331 15.8671 21.3817 17.2049 21.3566C20.075 21.3029 22.945 21.2174 25.8151 21.1437C25.9325 21.1403 26.0498 21.1235 26.3164 21.1001C26.08 20.8922 25.9258 20.7665 25.7799 20.6273C23.9828 18.9056 22.1806 17.1889 20.3918 15.4588C19.3642 14.4647 19.3759 13.7824 20.3968 12.7681C20.5578 12.6089 20.7288 12.4597 20.9082 12.3222C21.8 11.6483 22.4941 11.7522 23.2032 12.6189C25.0406 14.8687 26.8713 17.1235 28.7338 19.3515C30.5896 21.5712 30.5293 24.7195 28.4773 26.8486C26.6902 28.7028 24.8344 30.4898 23.0087 32.3088C22.5779 32.738 22.1471 33.1688 21.7279 33.6097C21.3139 34.0456 20.987 34.0959 20.4907 33.7556C20.3348 33.6483 20.1906 33.5175 20.0532 33.3851C19.1244 32.4798 19.168 32.1193 20.075 31.2308C22.1655 29.1856 24.2175 27.1017 26.2828 25.033C26.3147 25.0012 26.3248 24.9475 26.3968 24.7983V24.8Z" fill="#8244FF"/>
</g>
<defs>
<clipPath id="clip0_10_175">
<rect width="43.9262" height="44" fill="white" transform="translate(0 0.5)"/>
</clipPath>
</defs>
</svg>
