<svg width="1440" height="1964" viewBox="0 0 1440 1964" fill="none" xmlns="http://www.w3.org/2000/svg">
<g style="mix-blend-mode:overlay" filter="url(#filter0_d_10_103)">
<path d="M-483 1803.75H-362.75M-483 1803.75V1924H-362.75M-483 1803.75V1683.5M-362.75 1803.75V1924M-362.75 1803.75V1683.5M-362.75 1803.75H-242.5M-362.75 1924H-242.5M-483 1683.5H-362.75M-483 1683.5V1563.25M-362.75 1683.5V1563.25M-362.75 1683.5H-242.5M-483 1563.25H-362.75M-483 1563.25V1443M-362.75 1563.25V1443M-362.75 1563.25H-242.5M-483 1443H-362.75M-483 1443V1322.75M-362.75 1443V1322.75M-362.75 1443H-242.5M-483 1322.75H-362.75M-483 1322.75V1202.5M-362.75 1322.75V1202.5M-362.75 1322.75H-242.5M-483 1202.5H-362.75M-483 1202.5V1082.25M-362.75 1202.5V1082.25M-362.75 1202.5H-242.5M-483 1082.25H-362.75M-483 1082.25V962M-362.75 1082.25V962M-362.75 1082.25H-242.5M-483 962H-362.75M-483 962V841.75M-362.75 962V841.75M-362.75 962H-242.5M-483 601.25H-362.75M-483 601.25V721.5M-483 601.25V481M-362.75 601.25V721.5M-362.75 601.25V481M-362.75 601.25H-242.5M-362.75 721.5H-483M-362.75 721.5V841.75M-362.75 721.5H-242.5M-483 721.5V841.75M-483 240.5H-362.75M-483 240.5V360.75M-483 240.5V120.25M-362.75 240.5V360.75M-362.75 240.5V120.25M-362.75 240.5H-242.5M-362.75 360.75H-483M-362.75 360.75V481M-362.75 360.75H-242.5M-483 360.75V481M-483 841.75H-362.75M-362.75 841.75H-242.5M-483 481H-362.75M-362.75 481H-242.5M-483 120.25H-362.75M-483 120.25V0H-362.75M-362.75 120.25V0M-362.75 120.25H-242.5M-362.75 0H-242.5M-242.5 1803.75V1924M-242.5 1803.75V1683.5M-242.5 1803.75H-122.25M-242.5 1924H-122.25M-242.5 1683.5V1563.25M-242.5 1683.5H-122.25M-242.5 1563.25V1443M-242.5 1563.25H-122.25M-242.5 1443V1322.75M-242.5 1443H-122.25M-242.5 1322.75V1202.5M-242.5 1322.75H-122.25M-242.5 1202.5V1082.25M-242.5 1202.5H-122.25M-242.5 1082.25V962M-242.5 1082.25H-122.25M-242.5 962V841.75M-242.5 962H-122.25M-242.5 601.25V721.5M-242.5 601.25V481M-242.5 601.25H-122.25M-242.5 721.5V841.75M-242.5 721.5H-122.25M-242.5 240.5V360.75M-242.5 240.5V120.25M-242.5 240.5H-122.25M-242.5 360.75V481M-242.5 360.75H-122.25M-242.5 841.75H-122.25M-242.5 481H-122.25M-242.5 120.25V0M-242.5 120.25H-122.25M-242.5 0H-122.25M-122.25 1803.75V1924M-122.25 1803.75V1683.5M-122.25 1803.75H-2M-122.25 1924H-2M-122.25 1683.5V1563.25M-122.25 1683.5H-2M-122.25 1563.25V1443M-122.25 1563.25H-2M-122.25 1443V1322.75M-122.25 1443H-2M-122.25 1322.75V1202.5M-122.25 1322.75H-2M-122.25 1202.5V1082.25M-122.25 1202.5H-2M-122.25 1082.25V962M-122.25 1082.25H-2M-122.25 962V841.75M-122.25 962H-2M-122.25 601.25V721.5M-122.25 601.25V481M-122.25 601.25H-2M-122.25 721.5V841.75M-122.25 721.5H-2M-122.25 240.5V360.75M-122.25 240.5V120.25M-122.25 240.5H-2M-122.25 360.75V481M-122.25 360.75H-2M-122.25 841.75H-2M-122.25 481H-2M-122.25 120.25V0M-122.25 120.25H-2M-122.25 0H-2M-2 1803.75V1924M-2 1803.75V1683.5M-2 1803.75H118.25M-2 1924H118.25M-2 1683.5V1563.25M-2 1683.5H118.25M-2 1563.25V1443M-2 1563.25H118.25M-2 1443V1322.75M-2 1443H118.25M-2 1322.75V1202.5M-2 1322.75H118.25M-2 1202.5V1082.25M-2 1202.5H118.25M-2 1082.25V962M-2 1082.25H118.25M-2 962V841.75M-2 962H118.25M-2 601.25V721.5M-2 601.25V481M-2 601.25H118.25M-2 721.5V841.75M-2 721.5H118.25M-2 240.5V360.75M-2 240.5V120.25M-2 240.5H118.25M-2 360.75V481M-2 360.75H118.25M-2 841.75H118.25M-2 481H118.25M-2 120.25V0M-2 120.25H118.25M-2 0H118.25M118.25 1803.75V1924M118.25 1803.75V1683.5M118.25 1803.75H238.5M118.25 1924H238.5M118.25 1683.5V1563.25M118.25 1683.5H238.5M118.25 1563.25V1443M118.25 1563.25H238.5M118.25 1443V1322.75M118.25 1443H238.5M118.25 1322.75V1202.5M118.25 1322.75H238.5M118.25 1202.5V1082.25M118.25 1202.5H238.5M118.25 1082.25V962M118.25 1082.25H238.5M118.25 962V841.75M118.25 962H238.5M118.25 601.25V721.5M118.25 601.25V481M118.25 601.25H238.5M118.25 721.5V841.75M118.25 721.5H238.5M118.25 240.5V360.75M118.25 240.5V120.25M118.25 240.5H238.5M118.25 360.75V481M118.25 360.75H238.5M118.25 841.75H238.5M118.25 481H238.5M118.25 120.25V0M118.25 120.25H238.5M118.25 0H238.5M238.5 1803.75V1924M238.5 1803.75V1683.5M238.5 1803.75H358.75M238.5 1924H358.75M238.5 1683.5V1563.25M238.5 1683.5H358.75M238.5 1563.25V1443M238.5 1563.25H358.75M238.5 1443V1322.75M238.5 1443H358.75M238.5 1322.75V1202.5M238.5 1322.75H358.75M238.5 1202.5V1082.25M238.5 1202.5H358.75M238.5 1082.25V962M238.5 1082.25H358.75M238.5 962V841.75M238.5 962H358.75M238.5 601.25V721.5M238.5 601.25V481M238.5 601.25H358.75M238.5 721.5V841.75M238.5 721.5H358.75M238.5 240.5V360.75M238.5 240.5V120.25M238.5 240.5H358.75M238.5 360.75V481M238.5 360.75H358.75M238.5 841.75H358.75M238.5 481H358.75M238.5 120.25V0M238.5 120.25H358.75M238.5 0H358.75M358.75 1803.75V1924M358.75 1803.75V1683.5M358.75 1803.75H479M358.75 1924H479M358.75 1683.5V1563.25M358.75 1683.5H479M358.75 1563.25V1443M358.75 1563.25H479M358.75 1443V1322.75M358.75 1443H479M358.75 1322.75V1202.5M358.75 1322.75H479M358.75 1202.5V1082.25M358.75 1202.5H479M358.75 1082.25V962M358.75 1082.25H479M358.75 962V841.75M358.75 962H479M358.75 601.25V721.5M358.75 601.25V481M358.75 601.25H479M358.75 721.5V841.75M358.75 721.5H479M358.75 240.5V360.75M358.75 240.5V120.25M358.75 240.5H479M358.75 360.75V481M358.75 360.75H479M358.75 841.75H479M358.75 481H479M358.75 120.25V0M358.75 120.25H479M358.75 0H479M479 1803.75V1924M479 1803.75V1683.5M479 1803.75H599.25M479 1924H599.25M479 1683.5V1563.25M479 1683.5H599.25M479 1563.25V1443M479 1563.25H599.25M479 1443V1322.75M479 1443H599.25M479 1322.75V1202.5M479 1322.75H599.25M479 1202.5V1082.25M479 1202.5H599.25M479 1082.25V962M479 1082.25H599.25M479 962V841.75M479 962H599.25M479 601.25V721.5M479 601.25V481M479 601.25H599.25M479 721.5V841.75M479 721.5H599.25M479 240.5V360.75M479 240.5V120.25M479 240.5H599.25M479 360.75V481M479 360.75H599.25M479 841.75H599.25M479 481H599.25M479 120.25V0M479 120.25H599.25M479 0H599.25M599.25 1803.75V1924M599.25 1803.75V1683.5M599.25 1803.75H719.5M599.25 1924H719.5M599.25 1683.5V1563.25M599.25 1683.5H719.5M599.25 1563.25V1443M599.25 1563.25H719.5M599.25 1443V1322.75M599.25 1443H719.5M599.25 1322.75V1202.5M599.25 1322.75H719.5M599.25 1202.5V1082.25M599.25 1202.5H719.5M599.25 1082.25V962M599.25 1082.25H719.5M599.25 962V841.75M599.25 962H719.5M599.25 601.25V721.5M599.25 601.25V481M599.25 601.25H719.5M599.25 721.5V841.75M599.25 721.5H719.5M599.25 240.5V360.75M599.25 240.5V120.25M599.25 240.5H719.5M599.25 360.75V481M599.25 360.75H719.5M599.25 841.75H719.5M599.25 481H719.5M599.25 120.25V0M599.25 120.25H719.5M599.25 0H719.5M719.5 1803.75V1924M719.5 1803.75V1683.5M719.5 1803.75H839.75M719.5 1924H839.75M719.5 1683.5V1563.25M719.5 1683.5H839.75M719.5 1563.25V1443M719.5 1563.25H839.75M719.5 1443V1322.75M719.5 1443H839.75M719.5 1322.75V1202.5M719.5 1322.75H839.75M719.5 1202.5V1082.25M719.5 1202.5H839.75M719.5 1082.25V962M719.5 1082.25H839.75M719.5 962V841.75M719.5 962H839.75M719.5 601.25V721.5M719.5 601.25V481M719.5 601.25H839.75M719.5 721.5V841.75M719.5 721.5H839.75M719.5 240.5V360.75M719.5 240.5V120.25M719.5 240.5H839.75M719.5 360.75V481M719.5 360.75H839.75M719.5 841.75H839.75M719.5 481H839.75M719.5 120.25V0M719.5 120.25H839.75M719.5 0H839.75M839.75 1803.75V1924M839.75 1803.75V1683.5M839.75 1803.75H960M839.75 1924H960M839.75 1683.5V1563.25M839.75 1683.5H960M839.75 1563.25V1443M839.75 1563.25H960M839.75 1443V1322.75M839.75 1443H960M839.75 1322.75V1202.5M839.75 1322.75H960M839.75 1202.5V1082.25M839.75 1202.5H960M839.75 1082.25V962M839.75 1082.25H960M839.75 962V841.75M839.75 962H960M839.75 601.25V721.5M839.75 601.25V481M839.75 601.25H960M839.75 721.5V841.75M839.75 721.5H960M839.75 240.5V360.75M839.75 240.5V120.25M839.75 240.5H960M839.75 360.75V481M839.75 360.75H960M839.75 841.75H960M839.75 481H960M839.75 120.25V0M839.75 120.25H960M839.75 0H960M960 1803.75V1924M960 1803.75V1683.5M960 1803.75H1080.25M960 1924H1080.25M1200.5 1803.75H1320.75M1200.5 1803.75V1924M1200.5 1803.75V1683.5M1200.5 1803.75H1080.25M1320.75 1803.75V1924M1320.75 1803.75V1683.5M1320.75 1803.75H1441M1320.75 1924H1200.5M1320.75 1924H1441M1200.5 1924H1080.25M1561.25 1803.75H1681.5M1561.25 1803.75V1924M1561.25 1803.75V1683.5M1561.25 1803.75H1441M1681.5 1803.75V1924M1681.5 1803.75V1683.5M1681.5 1803.75H1801.75M1681.5 1924H1561.25M1681.5 1924H1801.75M1561.25 1924H1441M960 1683.5V1563.25M960 1683.5H1080.25M1200.5 1683.5H1320.75M1200.5 1683.5V1563.25M1200.5 1683.5H1080.25M1320.75 1683.5V1563.25M1320.75 1683.5H1441M1561.25 1683.5H1681.5M1561.25 1683.5V1563.25M1561.25 1683.5H1441M1681.5 1683.5V1563.25M1681.5 1683.5H1801.75M960 1563.25V1443M960 1563.25H1080.25M1200.5 1563.25H1320.75M1200.5 1563.25V1443M1200.5 1563.25H1080.25M1320.75 1563.25V1443M1320.75 1563.25H1441M1561.25 1563.25H1681.5M1561.25 1563.25V1443M1561.25 1563.25H1441M1681.5 1563.25V1443M1681.5 1563.25H1801.75M960 1443V1322.75M960 1443H1080.25M1200.5 1443H1320.75M1200.5 1443V1322.75M1200.5 1443H1080.25M1320.75 1443V1322.75M1320.75 1443H1441M1561.25 1443H1681.5M1561.25 1443V1322.75M1561.25 1443H1441M1681.5 1443V1322.75M1681.5 1443H1801.75M960 1322.75V1202.5M960 1322.75H1080.25M1200.5 1322.75H1320.75M1200.5 1322.75V1202.5M1200.5 1322.75H1080.25M1320.75 1322.75V1202.5M1320.75 1322.75H1441M1561.25 1322.75H1681.5M1561.25 1322.75V1202.5M1561.25 1322.75H1441M1681.5 1322.75V1202.5M1681.5 1322.75H1801.75M960 1202.5V1082.25M960 1202.5H1080.25M1200.5 1202.5H1320.75M1200.5 1202.5V1082.25M1200.5 1202.5H1080.25M1320.75 1202.5V1082.25M1320.75 1202.5H1441M1561.25 1202.5H1681.5M1561.25 1202.5V1082.25M1561.25 1202.5H1441M1681.5 1202.5V1082.25M1681.5 1202.5H1801.75M960 1082.25V962M960 1082.25H1080.25M1200.5 1082.25H1320.75M1200.5 1082.25V962M1200.5 1082.25H1080.25M1320.75 1082.25V962M1320.75 1082.25H1441M1561.25 1082.25H1681.5M1561.25 1082.25V962M1561.25 1082.25H1441M1681.5 1082.25V962M1681.5 1082.25H1801.75M960 962V841.75M960 962H1080.25M960 601.25V721.5M960 601.25V481M960 601.25H1080.25M960 721.5V841.75M960 721.5H1080.25M960 240.5V360.75M960 240.5V120.25M960 240.5H1080.25M960 360.75V481M960 360.75H1080.25M1200.5 962H1320.75M1200.5 962V841.75M1200.5 962H1080.25M1320.75 962V841.75M1320.75 962H1441M1200.5 601.25H1320.75M1200.5 601.25V721.5M1200.5 601.25V481M1200.5 601.25H1080.25M1320.75 601.25V721.5M1320.75 601.25V481M1320.75 601.25H1441M1320.75 721.5H1200.5M1320.75 721.5V841.75M1320.75 721.5H1441M1200.5 721.5V841.75M1200.5 721.5H1080.25M1200.5 240.5H1320.75M1200.5 240.5V360.75M1200.5 240.5V120.25M1200.5 240.5H1080.25M1320.75 240.5V360.75M1320.75 240.5V120.25M1320.75 240.5H1441M1320.75 360.75H1200.5M1320.75 360.75V481M1320.75 360.75H1441M1200.5 360.75V481M1200.5 360.75H1080.25M1561.25 962H1681.5M1561.25 962V841.75M1561.25 962H1441M1681.5 962V841.75M1681.5 962H1801.75M1561.25 601.25H1681.5M1561.25 601.25V721.5M1561.25 601.25V481M1561.25 601.25H1441M1681.5 601.25V721.5M1681.5 601.25V481M1681.5 601.25H1801.75M1681.5 721.5H1561.25M1681.5 721.5V841.75M1681.5 721.5H1801.75M1561.25 721.5V841.75M1561.25 721.5H1441M1561.25 240.5H1681.5M1561.25 240.5V360.75M1561.25 240.5V120.25M1561.25 240.5H1441M1681.5 240.5V360.75M1681.5 240.5V120.25M1681.5 240.5H1801.75M1681.5 360.75H1561.25M1681.5 360.75V481M1681.5 360.75H1801.75M1561.25 360.75V481M1561.25 360.75H1441M960 841.75H1080.25M960 481H1080.25M960 120.25V0M960 120.25H1080.25M1200.5 841.75H1320.75M1200.5 841.75H1080.25M1320.75 841.75H1441M1200.5 481H1320.75M1200.5 481H1080.25M1320.75 481H1441M1200.5 120.25H1320.75M1200.5 120.25V0M1200.5 120.25H1080.25M1320.75 120.25V0M1320.75 120.25H1441M1561.25 841.75H1681.5M1561.25 841.75H1441M1681.5 841.75H1801.75M1561.25 481H1681.5M1561.25 481H1441M1681.5 481H1801.75M1561.25 120.25H1681.5M1561.25 120.25V0M1561.25 120.25H1441M1681.5 120.25V0M1681.5 120.25H1801.75M960 0H1080.25M1200.5 0H1320.75M1200.5 0H1080.25M1320.75 0H1441M1561.25 0H1681.5M1561.25 0H1441M1681.5 0H1801.75M1080.25 1803.75V1924M1080.25 1803.75V1683.5M1441 1803.75V1924M1441 1803.75V1683.5M1801.75 1803.75V1924M1801.75 1803.75V1683.5M1801.75 1803.75H1922M1801.75 1924H1922V1803.75M1080.25 1683.5V1563.25M1441 1683.5V1563.25M1801.75 1683.5V1563.25M1801.75 1683.5H1922M1080.25 1563.25V1443M1441 1563.25V1443M1801.75 1563.25V1443M1801.75 1563.25H1922M1080.25 1443V1322.75M1441 1443V1322.75M1801.75 1443V1322.75M1801.75 1443H1922M1080.25 1322.75V1202.5M1441 1322.75V1202.5M1801.75 1322.75V1202.5M1801.75 1322.75H1922M1080.25 1202.5V1082.25M1441 1202.5V1082.25M1801.75 1202.5V1082.25M1801.75 1202.5H1922M1080.25 1082.25V962M1441 1082.25V962M1801.75 1082.25V962M1801.75 1082.25H1922M1080.25 962V841.75M1080.25 601.25V721.5M1080.25 601.25V481M1080.25 721.5V841.75M1080.25 240.5V360.75M1080.25 240.5V120.25M1080.25 360.75V481M1441 962V841.75M1441 601.25V721.5M1441 601.25V481M1441 721.5V841.75M1441 240.5V360.75M1441 240.5V120.25M1441 360.75V481M1801.75 962V841.75M1801.75 962H1922M1801.75 601.25V721.5M1801.75 601.25V481M1801.75 601.25H1922M1801.75 721.5V841.75M1801.75 721.5H1922M1801.75 240.5V360.75M1801.75 240.5V120.25M1801.75 240.5H1922M1801.75 360.75V481M1801.75 360.75H1922M1080.25 120.25V0M1441 120.25V0M1801.75 841.75H1922M1801.75 481H1922M1801.75 120.25V0M1801.75 120.25H1922M1801.75 0H1922V120.25M1922 1803.75V1683.5M1922 1683.5V1563.25M1922 1563.25V1443M1922 1443V1322.75M1922 1322.75V1202.5M1922 1202.5V1082.25M1922 1082.25V962M1922 962V841.75M1922 601.25V721.5M1922 601.25V481M1922 721.5V841.75M1922 240.5V360.75M1922 240.5V120.25M1922 360.75V481" stroke="url(#paint0_radial_10_103)" shape-rendering="crispEdges"/>
</g>
<defs>
<filter id="filter0_d_10_103" x="-518.5" y="-31.5" width="2476" height="1995" filterUnits="userSpaceOnUse" color-interpolation-filters="sRGB">
<feFlood flood-opacity="0" result="BackgroundImageFix"/>
<feColorMatrix in="SourceAlpha" type="matrix" values="0 0 0 0 0 0 0 0 0 0 0 0 0 0 0 0 0 0 127 0" result="hardAlpha"/>
<feOffset dy="4"/>
<feGaussianBlur stdDeviation="17.5"/>
<feComposite in2="hardAlpha" operator="out"/>
<feColorMatrix type="matrix" values="0 0 0 0 0 0 0 0 0 0 0 0 0 0 0 0 0 0 0.25 0"/>
<feBlend mode="normal" in2="BackgroundImageFix" result="effect1_dropShadow_10_103"/>
<feBlend mode="normal" in="SourceGraphic" in2="effect1_dropShadow_10_103" result="shape"/>
</filter>
<radialGradient id="paint0_radial_10_103" cx="0" cy="0" r="1" gradientUnits="userSpaceOnUse" gradientTransform="translate(719.5 962) rotate(90) scale(962 1202.5)">
<stop stop-color="white" stop-opacity="0.1"/>
<stop offset="1" stop-color="white" stop-opacity="0.6"/>
</radialGradient>
</defs>
</svg>
