<svg width="160" height="160" viewBox="0 0 160 160" fill="none" xmlns="http://www.w3.org/2000/svg">
<mask id="mask0_2463_1752" style="mask-type:alpha" maskUnits="userSpaceOnUse" x="0" y="0" width="160" height="160">
<circle cx="79.7377" cy="79.7377" r="79.7377" fill="#D9D9D9"/>
</mask>
<g mask="url(#mask0_2463_1752)">
<path d="M123.451 145.569C123.085 145.83 122.667 146.091 122.301 146.353C121.882 146.614 121.516 146.876 121.098 147.085C120.732 147.294 120.418 147.503 120.052 147.712C120 147.765 119.948 147.765 119.895 147.817C118.693 148.549 117.438 149.229 116.183 149.856C115.817 150.065 115.399 150.275 115.033 150.431C115.033 150.431 114.98 150.484 114.928 150.484C114.51 150.693 114.091 150.902 113.673 151.111C112.837 151.529 111.948 151.895 111.111 152.261C110.693 152.471 110.222 152.627 109.804 152.784C109.386 152.941 108.915 153.15 108.497 153.307C108.078 153.464 107.608 153.673 107.19 153.83C107.19 153.83 107.19 153.83 107.137 153.83C106.719 153.987 106.248 154.144 105.83 154.301C104.889 154.614 103.895 154.928 102.954 155.242C102.64 155.346 102.274 155.451 101.961 155.556C100.967 155.869 99.9738 156.131 98.9804 156.34C98.6144 156.444 98.2483 156.497 97.83 156.601C96.8889 156.81 95.8954 157.02 94.9542 157.229C94.7451 157.281 94.5882 157.281 94.3791 157.333C94.0653 157.386 93.6993 157.438 93.3856 157.49C92.915 157.542 92.4967 157.647 92.0261 157.699C91.817 157.752 91.6078 157.752 91.3987 157.804C91.1372 157.856 90.8235 157.908 90.5098 157.908C89.6732 158.013 88.7843 158.118 87.9477 158.222C87.6863 158.274 87.3725 158.274 87.1111 158.327H87.0588C86.6928 158.379 86.3268 158.379 85.9608 158.431C85.5947 158.484 85.2287 158.484 84.8627 158.484C84.6536 158.484 84.3921 158.536 84.183 158.536C83.7647 158.536 83.3987 158.588 83.0327 158.588C82.5098 158.588 82.0392 158.641 81.5163 158.641C80.9934 158.641 80.5229 158.641 80 158.641C79.634 158.641 79.268 158.641 78.9019 158.641C56.8366 158.327 37.0196 148.967 22.8497 134.118C22.8497 134.118 22.8497 134.065 22.7974 134.065C21.2287 132.654 22.5882 125.124 28.915 120.366C36.8627 114.353 55.8954 110.588 55.8954 110.588C55.8954 110.588 63.268 109.386 90.6144 115.085C106.614 118.431 118.797 123.294 125.595 136.471C127.007 139.19 128.418 143.373 123.451 145.569Z" fill="white"/>
<path d="M90.7712 114.51C100.81 116.549 111.529 118.745 119.791 125.386C122.562 127.634 124.392 130.928 125.908 134.118C126.64 135.686 127.373 137.307 127.948 139.033C128.261 140.183 128.732 141.49 128.471 142.85C128.418 143.216 128.105 143.686 127.843 143.948C126.64 145.15 125.333 145.882 124.026 146.824C116.34 152.157 107.503 155.922 98.3529 157.909C77.9607 162.353 55.8954 158.902 37.9607 148.183C32 144.575 26.5098 140.183 21.8039 135.007C21.281 134.379 21.281 133.333 21.281 132.654C21.3333 131.085 21.7516 129.569 22.2745 128.157C23.5294 124.915 25.1503 121.673 27.9215 119.425C29.9085 118.065 32.0522 116.915 34.2483 115.974C41.1503 113.046 48.4183 111.007 55.8954 110.17C56.5228 110.118 56.6274 111.007 56 111.111C48.8366 112.575 41.7254 114.771 35.0849 117.752C32.6797 118.954 30.1176 120 28.183 121.882C26.3529 123.869 25.0457 126.327 24 128.837C23.3202 130.353 22.8496 132.758 23.0588 133.961C26.3529 137.882 30.2222 141.333 34.4052 144.314C57.3071 160.314 92.0784 161.359 116.444 148.026C118.64 146.824 120.784 145.464 122.823 144.052C123.817 143.373 124.863 142.797 125.647 142.013C125.699 141.961 125.647 142.013 125.647 142.065C125.647 142.118 125.595 142.17 125.595 142.17C125.647 141.542 125.438 140.706 125.176 139.869C124.235 136.837 122.719 133.647 121.098 130.876C118.536 126.745 114.196 124.131 109.804 122.039C106.771 120.627 103.582 119.529 100.34 118.484C97.098 117.438 93.8039 116.549 90.5098 115.765C89.6732 115.556 89.9346 114.353 90.7712 114.51Z" fill="black"/>
<path d="M119.791 125.856C115.817 122.248 103.112 116.601 93.5952 114.301C89.4122 113.307 79.5821 110.431 72.105 109.699C68.0789 109.281 60.654 110.274 56.0004 110.431C51.5037 110.588 36.3403 113.673 29.0723 118.797C27.5037 119.895 20.4972 126.85 17.4645 144.68C15.1115 158.431 12.1834 176.261 12.0789 182.327H131.242C133.229 146.876 123.922 129.621 119.791 125.856Z" fill="black"/>
<path d="M118.902 126.85C116.497 124.81 113.412 123.242 110.536 121.882C106.039 119.739 101.334 117.908 96.5231 116.497C91.7126 115.19 86.693 113.935 81.8826 112.784C78.6407 112.052 75.3466 111.425 72.0525 111.059C68.863 110.797 65.412 111.163 62.1701 111.373C59.7126 111.582 57.1505 111.686 54.6407 111.895C47.3205 112.889 39.8956 114.824 33.2028 117.961C31.9479 118.588 30.7453 119.216 29.6473 120.052C26.876 122.562 24.8891 126.065 23.3205 129.464C20.7584 135.111 19.3466 141.281 18.4054 147.399C17.6211 152.209 16.6799 157.595 15.9479 162.405C14.9544 168.993 13.8041 175.686 13.4904 182.327L12.1309 180.967H131.242L129.883 182.222C130.615 167.791 129.987 152.941 125.438 139.085C123.922 134.797 122.092 130.196 118.902 126.85ZM120.732 124.863C122.719 126.745 124.026 128.889 125.438 131.137C129.412 137.673 131.294 145.098 132.34 152.627C133.804 162.458 133.752 172.497 132.654 182.379C132.654 183.111 132.026 183.686 131.294 183.634H12.1832C11.4512 183.634 10.8237 183.007 10.8237 182.275C10.876 180.497 11.0852 178.824 11.242 177.098C11.8172 172.026 12.6015 167.007 13.4381 161.987C14.1701 157.176 15.1636 151.791 15.9479 146.98C16.9937 140.654 18.4577 134.275 21.0721 128.418C22.8499 124.654 24.8891 120.941 28.0786 118.118C29.3335 117.176 30.693 116.392 32.1048 115.712C39.1636 112.418 46.693 110.484 54.327 109.386C56.8368 109.176 59.3989 109.072 61.961 108.81C65.412 108.549 68.7584 108.183 72.3139 108.444C75.7649 108.81 79.1113 109.438 82.4577 110.17C87.4773 111.32 92.3401 112.523 97.3074 113.882C102.222 115.346 107.033 117.176 111.686 119.373C114.876 121.046 117.909 122.51 120.732 124.863Z" fill="black"/>
<path d="M121.987 182.327C118.484 149.072 111.582 132.131 111.582 132.131C109.961 123.19 105.673 116.131 104.314 115.503C101.856 114.405 101.438 114.771 101.438 114.771C105.412 120.157 107.451 129.307 107.974 134.065C92.9674 140.601 65.255 136.052 55.5818 133.961C52.3922 128.261 46.2746 116.34 40.9413 111.791C40.4707 111.425 39.8432 111.373 39.3203 111.582C38.902 111.791 38.3269 112.157 37.804 112.784C37.5426 113.098 37.5426 113.516 37.8563 113.83C37.9086 113.882 37.9609 113.935 38.0131 113.987C46.902 123.712 51.7648 140.706 50.5622 153.83C48.4184 177.15 44.34 182.275 44.34 182.275H121.987V182.327Z" fill="#16F8B6"/>
<path d="M120.994 181.438C120.523 179.66 120.209 177.935 120.105 176.105C118.536 161.307 116.34 146.301 111.111 132.34L111.843 132.601C111.582 132.758 111.268 132.654 111.111 132.444C110.379 128.941 109.333 125.49 107.765 122.248C106.719 120.157 105.673 118.013 104.052 116.392C103.425 116.078 102.588 115.817 101.909 115.608C101.804 115.556 101.699 115.556 101.647 115.556C101.647 115.556 101.647 115.556 101.699 115.556H101.752C101.804 115.556 101.752 115.556 101.856 115.451L101.961 114.458C102.431 115.242 103.477 117.176 103.843 117.961C105.516 121.464 106.562 125.281 107.399 129.046C107.712 130.719 108.026 132.444 108.235 134.17C108.235 134.327 108.183 134.431 108.026 134.536C99.7648 137.987 90.6144 138.301 81.7778 138.196C77.3334 138.091 72.8889 137.725 68.4968 137.255C64.1046 136.732 59.7125 136.052 55.3203 135.163C55.0066 135.111 54.7974 134.902 54.6406 134.693C52.4968 130.876 50.5099 127.111 48.3138 123.399C46.17 119.791 43.9216 116.026 40.8889 113.098L40.3661 112.627C39.634 112.105 38.7974 113.046 38.2746 113.516C38.2223 113.569 38.2223 113.621 38.2746 113.673L38.3268 113.725C40 115.608 41.4641 117.647 42.7713 119.791C45.0719 123.556 46.8497 127.529 48.7321 131.503C51.451 137.621 51.5556 144.418 51.5033 151.007C51.1896 157.542 50.4053 164.078 49.3595 170.51C48.4706 174.902 47.6863 179.503 45.3334 183.425L44.2876 181.229C68.7059 180.863 96.5229 181.072 120.994 181.438ZM123.033 183.268C97.9347 183.634 69.3857 183.843 44.2876 183.686L43.2419 181.49C44.8105 178.876 45.5425 175.843 46.3791 172.915C47.7386 167.739 48.6275 162.458 49.2549 157.124L49.621 153.935C50.5621 146.458 48.1569 139.19 46.536 131.974C45.2811 125.699 42.0916 119.843 37.9085 115.033L37.3857 114.458L37.3334 114.405L37.2811 114.353C37.0197 114.039 36.8628 113.673 36.8628 113.255C36.9151 112.523 37.5948 111.948 38.1177 111.529C39.1634 110.641 40.5229 110.484 41.5687 111.529C43.3987 113.098 44.8628 114.928 46.2746 116.81C50.1438 122.039 53.2811 127.843 56.4184 133.542L55.7386 133.02C64.3138 134.85 73.0458 136.157 81.8301 136.732C90.5099 137.15 99.6079 137.15 107.765 133.804L107.556 134.17C107.346 132.497 107.085 130.824 106.719 129.15C105.987 125.856 104.889 122.614 103.425 119.529C103.163 118.954 102.536 117.856 102.222 117.281C101.804 116.549 101.281 115.869 100.758 115.242C100.444 114.876 100.654 114.353 100.967 114.144C102.013 113.621 103.216 114.248 104.209 114.614C104.418 114.719 104.784 114.876 104.994 115.033C106.876 116.81 107.922 119.32 108.967 121.621C109.699 123.294 110.275 125.02 110.745 126.745C111.268 128.471 111.634 130.248 111.948 132.026L111.163 131.66C111.425 131.503 111.739 131.556 111.895 131.817C115.503 141.961 118.013 152.523 120.052 163.085C120.889 167.32 121.569 171.556 122.248 175.791C122.824 178.248 122.98 180.863 123.033 183.268Z" fill="black"/>
<path d="M59.1897 145.621C60.5759 145.621 61.6995 144.497 61.6995 143.111C61.6995 141.725 60.5759 140.601 59.1897 140.601C57.8036 140.601 56.6799 141.725 56.6799 143.111C56.6799 144.497 57.8036 145.621 59.1897 145.621Z" fill="black"/>
<path d="M107.556 142.641C108.769 142.641 109.752 141.657 109.752 140.444C109.752 139.232 108.769 138.248 107.556 138.248C106.343 138.248 105.36 139.232 105.36 140.444C105.36 141.657 106.343 142.641 107.556 142.641Z" fill="black"/>
<path d="M95.686 128.552C94.588 133.937 87.4769 137.179 75.503 132.316C63.0586 127.297 57.673 115.323 56.3135 111.767C63.686 97.9634 58.5618 88.3948 58.5618 88.3948C75.5553 86.9307 90.405 106.8 90.405 106.8L92.7056 116.63C92.9148 117.467 93.3331 118.199 93.9605 118.722C95.0586 120.656 96.3658 125.101 95.686 128.552Z" fill="white"/>
<path d="M56.0521 111.924C57.0455 110.408 57.673 108.63 58.0913 106.905C58.8756 103.297 59.137 99.6367 59.1893 95.9765V94.617C59.0324 93.2576 58.5619 91.8458 58.039 90.5909C57.3592 88.9177 59.8168 87.8719 60.6011 89.5451C60.7057 89.7543 60.7056 90.1203 60.7056 90.3295C60.8625 97.4406 61.1762 106.591 56.6795 112.499C56.3658 112.813 55.7383 112.343 56.0521 111.924Z" fill="black"/>
<path d="M90.9802 106.695C91.7645 107.166 92.026 107.794 92.1305 108.421C92.4443 109.676 92.3397 111.035 92.6534 112.343C92.9149 113.597 93.6992 114.8 93.9083 116.107C94.1698 117.467 94.9541 120.343 95.2678 121.754C95.3724 122.068 95.1632 122.434 94.7972 122.486C94.5881 122.539 94.4312 122.486 94.2743 122.382C93.5946 121.807 93.2809 121.231 92.8626 120.499C92.1828 119.244 91.7122 118.094 91.2939 116.682C90.9279 115.428 91.0848 114.068 90.7711 112.761C90.5096 111.506 89.7776 110.303 89.5162 108.996C89.3593 108.369 89.307 107.689 89.7776 106.905C90.0913 106.591 90.6142 106.486 90.9802 106.695Z" fill="black"/>
<path d="M94.7451 120.499C84.7581 119.976 76.6013 116.839 68.6536 102.669C75.3464 108.578 83.2418 110.826 91.5555 111.872L92.6536 116.682C92.8627 117.519 94.1176 119.976 94.7451 120.499Z" fill="black"/>
<path d="M94.3268 118.565C96.1046 121.911 97.1504 126.094 96.0523 129.807C95.2157 132.421 92.8105 134.356 90.1961 135.088C84.1308 136.709 77.1242 134.146 71.7386 131.271C65.0981 127.558 60.183 121.336 57.0458 114.539C56.8366 114.016 57.5687 113.597 57.8824 114.12C58.9804 116.316 60.2353 118.46 61.6471 120.395C63.0589 122.382 64.6798 124.212 66.5098 125.833C71.8432 130.643 79.0589 133.624 86.2745 133.624C93.6994 133.414 96.5229 129.493 94.7974 122.277C94.536 121.127 94.1177 119.924 93.5425 118.931C93.2288 118.512 94.0131 118.042 94.3268 118.565Z" fill="black"/>
<path d="M114.562 55.7673C115.503 60.1595 115.974 63.715 113.412 75.4275C110.902 87.0876 117.02 89.4928 102.536 108.159C96.6274 115.793 82.3006 113.65 70.6927 105.754C66.7711 103.088 65.0979 96.2379 62.1698 91.3752C59.8692 87.5582 58.8234 91.532 55.7908 88.2379C51.66 83.7412 46.6927 74.6954 49.1502 58.6954C53.1241 32.7608 73.6731 29.7281 88.8888 32.6039C104.209 35.532 112.052 44.2118 114.562 55.7673Z" fill="white"/>
<path d="M58.4052 92.8915C57.2025 90.8523 55.6339 89.0745 54.1699 87.1922C52.7581 85.2575 51.6078 83.1137 50.6666 80.9177C44.4444 65.6497 46.8496 44.1595 62.1176 35.166C68.4444 31.5059 76.0784 30.617 83.1895 31.1922C98.4052 32.2902 112.366 39.2967 115.66 55.4013C117.438 62.5124 115.033 69.8327 113.673 76.7869C113.046 80.2379 113.569 83.7935 113.516 87.349C113.464 90.9569 112.471 94.5647 111.111 97.9111C110.274 100.212 108.81 102.251 107.294 104.133C104.784 107.166 102.274 110.251 99.0849 112.604C98.3529 113.127 97.0457 113.388 96.1568 113.493C93.6993 113.859 91.294 113.963 88.8365 113.807C79.2156 113.388 68.915 108.735 65.0457 99.4275C64.8888 99.0614 65.4117 98.8 65.6208 99.1137C70.6405 107.061 79.8431 110.983 88.9934 111.506C91.8169 111.663 94.6927 111.61 97.464 111.035C98.8235 110.356 100.026 109.153 101.176 108.055C104 105.231 106.876 102.199 108.915 98.7477C111.372 94.0941 112.732 89.0222 112.314 83.7412C112.209 81.3882 112.157 78.9307 112.627 76.5778C113.046 74.2248 113.569 71.9765 113.882 69.5713C114.196 67.2706 114.353 64.9177 114.353 62.617C114.091 55.8719 111.895 48.9177 107.608 43.6889C98.1437 31.9242 75.7646 28.8392 63.1633 36.8915C55.2156 41.8065 51.5032 51.0092 50.3006 59.9503C48.4705 70.6693 48.9934 81.2314 57.5163 89.0222L60.0261 91.6366C61.0195 92.7869 59.2418 94.1464 58.4052 92.8915Z" fill="black"/>
<path d="M64.5749 76.264C64.5749 76.264 62.954 68.4209 55.32 69.362C48.7317 70.1986 46.4311 85.9895 61.3853 90.3817" fill="white"/>
<path d="M60.7058 83.532C59.5032 82.8523 58.6666 81.7019 58.6143 80.2902C58.6666 79.2444 58.8234 78.0418 58.562 76.9961C58.4051 76.0026 57.3594 75.7411 56.575 75.7934C55.7384 75.9503 55.2156 76.9961 55.0587 77.8327C55.0587 77.8849 55.0064 78.0418 55.0064 78.0941C54.9541 78.3555 54.5358 78.3555 54.4313 78.0941C53.7515 76.0549 55.2679 73.8065 57.4639 74.0679C60.5489 74.2771 60.9672 77.5189 60.392 79.9764C60.0783 81.0222 60.4966 81.9634 61.0718 82.8523L61.1764 83.0091C61.4378 83.3229 61.0195 83.7412 60.7058 83.532Z" fill="black"/>
<path d="M102.536 70.7215C103.32 74.4339 104.784 77.8849 106.614 81.1268C108.235 85.1006 104.052 88.8653 100.34 88.7085C99.9213 88.7085 99.869 88.1333 100.235 88.0287C102.588 87.2967 104.732 85.7281 105.098 83.3228C105.255 82.5908 105.045 81.9634 104.679 81.3359C102.954 78.0941 101.908 74.3817 102.17 70.7215C102.17 70.4601 102.536 70.4601 102.536 70.7215Z" fill="black"/>
<path d="M64.3136 76.3164C63.111 73.2314 60.4966 70.3033 56.9933 70.3556C56.6796 70.3033 56.1567 70.4079 55.843 70.4079C54.9541 70.4601 54.2221 70.7739 53.5423 71.4013C50.1959 74.7477 50.7711 80.6562 53.4901 84.3686C54.4312 85.6758 55.6338 86.8262 56.9933 87.7673C58.3528 88.7085 59.8691 89.4405 61.4901 90.068C61.8561 90.1726 61.6992 90.7477 61.3332 90.6954C57.8299 89.9634 54.4835 88.2379 52.1829 85.3621C48.6273 81.0745 47.8953 73.9111 52.1306 69.7281C53.0718 68.8915 54.3789 68.2641 55.6861 68.2641C56.1044 68.2641 56.7319 68.1595 57.1502 68.2641C59.3463 68.3686 61.4378 69.4667 62.7972 71.1922C63.9999 72.6562 64.6796 74.434 64.8888 76.2118C64.8888 76.5255 64.4182 76.6301 64.3136 76.3164Z" fill="black"/>
<path d="M98.5622 93.8039C95.2158 96.9935 88.889 94.4314 87.2158 90.5621C87.0067 90.0915 87.5296 89.6732 87.9479 89.8823C88.8367 90.3529 89.6211 90.8235 90.4577 91.1895C92.8629 92.2876 95.3727 93.1765 98.0394 92.915C98.5622 92.8104 98.9282 93.4379 98.5622 93.8039Z" fill="black"/>
<path d="M91.0849 63.7908C92.2352 63.6862 92.8104 62.3267 92.183 61.281C91.8169 60.7581 91.3464 60.2875 90.6666 60.0261C88.6797 59.3986 82.196 60.8104 79.3725 64.0522C76.8627 67.0326 85.8562 64.2614 91.0849 63.7908Z" fill="black"/>
<path d="M104.889 64.6273C104 64.3659 103.739 63.0587 104.471 62.2221C104.837 61.8038 105.36 61.4378 105.935 61.3332C107.712 61.0195 111.791 62.6404 112.941 65.7254C113.987 68.392 109.124 65.6731 104.889 64.6273Z" fill="black"/>
<path d="M83.0328 75.9215C81.7779 75.8692 80.8367 74.8235 80.9413 73.5686L80.9936 72.1045C81.0459 70.8496 82.0916 69.9084 83.3465 70.013C84.6014 70.0653 85.5426 71.111 85.438 72.3659L85.3857 73.83C85.3334 75.0326 84.2877 75.9738 83.0328 75.9215Z" fill="black"/>
<path d="M105.046 76.7058C103.895 76.6535 103.007 75.6601 103.059 74.5097L103.111 73.1502C103.163 71.9999 104.157 71.111 105.307 71.1633C106.458 71.2156 107.346 72.2091 107.294 73.3594L107.242 74.7189C107.19 75.8692 106.196 76.7581 105.046 76.7058Z" fill="black"/>
<path d="M87.7385 73.098C86.013 71.9477 84.1307 71.1633 82.0392 71.5816C81.3594 71.6862 80.6797 71.8954 80.2614 72.366C80.1045 72.5751 79.7385 72.5228 79.7385 72.2091C79.7908 71.1633 80.6797 70.4836 81.5163 70.0653C83.1372 69.2287 85.3856 69.3856 86.8496 70.4836C87.3725 70.7973 89.1503 72.732 88.2091 73.1503C88 73.2548 87.8954 73.2026 87.7385 73.098Z" fill="black"/>
<path d="M102.693 73.3594C102.693 71.1634 105.412 70.3791 107.085 71.1634C108.026 71.5817 108.706 72.4183 108.967 73.4117C109.072 73.7255 108.601 73.9869 108.392 73.7255C107.503 72.6797 105.987 72.1568 104.784 72.7843C104.418 72.9934 104.366 73.1503 104.261 73.3594C104.261 74.4052 102.745 74.3529 102.693 73.3594Z" fill="black"/>
<path d="M118.747 64.3659C121.1 56.3136 117.021 50.7189 114.093 47.9999C112.734 44.3398 110.433 40.7319 106.773 37.9607C106.041 37.3855 105.256 36.8627 104.368 36.3921C103.635 35.9738 102.851 35.6078 102.067 35.2417C95.1649 32.2613 84.1322 28.7581 73.2041 30.6404C69.0211 31.3202 64.8381 32.8365 60.9165 35.3986C60.8642 35.3986 60.8642 35.4509 60.8642 35.4509C60.5505 35.66 60.2368 35.8692 59.9753 36.0783C59.2433 35.1895 58.4067 34.4051 57.4655 33.6731C50.9296 28.7581 43.8185 29.5947 38.9034 36.1829C33.9884 42.7189 33.1518 52.4966 39.6878 57.4117C41.727 58.928 44.0276 59.8692 46.3806 60.2352C46.3283 60.4966 46.3283 60.8104 46.276 61.0718C43.4002 86.8496 63.1126 98.4574 61.5963 90.3529C61.178 90.196 60.9688 90.0391 60.9688 89.9346C46.4851 85.3332 48.7858 69.8561 55.3218 69.0195C57.6747 68.7058 59.4002 69.281 60.7597 70.1176C61.2825 70.6404 61.7531 71.111 62.2237 71.5816C63.4786 73.1502 64.5767 75.1372 64.5767 75.9215C64.6289 75.294 64.6812 74.562 64.8381 73.83C71.1649 78.5359 76.8642 76.8627 87.2172 60.3398C94.0669 49.4117 98.1453 47.2679 100.394 47.5816C101.283 47.8953 102.119 48.5751 102.903 49.7254C103.113 50.0391 103.322 50.3529 103.479 50.6666C108.08 50.562 110.224 53.2287 111.322 55.9999C111.322 55.9999 111.322 55.9999 111.322 56.0522C112.211 58.4051 112.315 60.8104 112.42 61.4378C112.42 61.5424 112.42 61.5947 112.472 61.5947C112.368 63.6862 112.106 67.2417 112.054 71.8431C112.054 73.9346 112.263 78.1176 112.106 80.5228C112.054 81.2548 112.001 81.9868 111.949 82.6666C111.897 83.0326 111.897 83.3986 111.845 83.7123C111.792 84.0261 111.792 84.3921 111.74 84.7581C111.688 85.1764 111.635 85.5424 111.635 85.9607C112.681 87.2156 114.198 87.4248 115.452 88.2614C115.766 84.7058 114.825 81.7254 114.459 77.6993C114.773 79.0587 115.191 80.3659 115.818 81.7254C117.91 86.2221 116.76 89.5163 116.76 89.5163L120.211 89.7254C120.577 88.7319 120.89 86.9019 119.792 84.4966C118.119 80.7842 118.015 79.0587 118.015 79.0587C118.015 79.0587 118.903 82.0914 120.577 84.1306C121.884 85.8038 122.407 88.0522 121.884 89.83L123.139 89.9346C126.903 84.2875 115.243 76.2352 118.747 64.3659ZM76.0799 68.9149C72.1061 71.7908 68.7597 71.2156 66.7204 70.3267C66.7727 70.3267 66.825 70.2744 66.825 70.2744C68.0799 70.1698 69.3348 69.9084 70.5374 69.4378C76.2891 67.3986 81.6224 62.1176 86.3283 57.2548C82.3544 62.1698 78.5374 67.1372 76.0799 68.9149Z" fill="black"/>
<path d="M91.3465 82.3529C91.3465 82.3529 86.4315 85.4379 80.889 85.3856C75.3465 85.3333 74.6668 80.9934 74.6145 78.6405C74.6145 78.6405 75.3465 82.0392 78.6929 83.2941C81.9871 84.549 91.3465 82.3529 91.3465 82.3529Z" fill="black"/>
<path d="M107.137 81.7777C107.137 81.7777 108.34 83.2418 109.961 84.2875C111.059 85.0195 112.523 84.2352 112.523 82.928C112.523 82.928 109.49 83.0849 107.137 81.7777Z" fill="black"/>
<path d="M93.1761 68.3922C90.3526 68.1307 83.2415 67.5556 80.5225 67.2941L78.431 67.1373C76.7055 67.0327 75.3461 68.4967 75.0323 70.1699C74.9278 70.6928 74.9278 71.5817 74.9278 72.1046V74.2484C74.9278 75.5556 74.8755 76.915 75.3461 78.1699C76.1827 81.098 78.8493 83.451 81.9866 83.085C82.3003 83.0327 84.235 82.8235 84.601 82.7712L88.8363 82.3007C90.1957 82.1961 91.4506 81.8301 92.6533 81.098C94.3265 80.1046 95.9474 78.5882 95.8428 76.4444L95.9474 74.3529C96.0519 71.7386 96.784 68.6536 93.1761 68.3922ZM93.333 66.6667C95.7905 66.8758 97.4637 69.4379 97.3069 71.7909C97.3069 72.1046 97.2023 74.0915 97.15 74.4575C97.15 74.8758 97.0454 76.7582 96.9931 77.1242C96.7317 80.6797 92.7578 83.1895 89.516 83.6601C87.8428 83.8693 84.3395 84.3399 82.6663 84.549C82.248 84.6013 81.6729 84.6536 81.2546 84.7059C81.0454 84.7059 80.5748 84.6536 80.3657 84.6536C75.9212 84.0784 73.0977 79.5294 73.2023 75.2941C73.2023 74.6144 73.2023 72.8366 73.2023 72.1046C73.2023 71.7386 73.2023 70.7974 73.2546 70.4314C73.4114 68.6013 74.4049 66.8235 76.0781 65.8301C76.8101 65.4118 77.699 65.2026 78.5879 65.2549L80.7317 65.4641C83.3461 65.7778 90.5617 66.4575 93.333 66.6667Z" fill="black"/>
<path d="M105.464 67.5033C106.614 67.3464 112.261 66.719 113.307 66.6144C113.568 66.6144 114.248 66.5098 114.457 66.5098C116.706 66.1961 117.751 68.6536 117.961 70.4837C118.065 72.1046 117.961 73.6732 118.013 75.2419C118.013 76.3399 117.908 77.4379 117.647 78.4837C116.967 81.3072 114.98 84.2876 111.686 83.3464C110.902 83.1896 109.333 82.9804 108.601 82.8236L107.817 82.6667C106.3 82.4053 105.046 81.3595 104.209 80.2092C102.64 78.3791 102.954 75.9216 102.797 73.7255C102.588 71.5294 102.64 68.1308 105.464 67.5033ZM105.673 69.0196C104.052 69.7517 104.47 72.2092 104.47 73.6732L104.575 76.8105C104.627 78.7974 106.196 80.7843 108.078 81.3072C108.549 81.4118 109.856 81.6732 110.379 81.7778L111.895 82.0915C115.66 83.2941 117.124 78.0654 117.072 75.1896C116.915 72.7843 117.647 69.9085 115.921 67.9739C115.503 67.5556 115.085 67.451 114.614 67.5556C114.353 67.6079 113.673 67.7125 113.464 67.7647C112.418 67.9739 106.771 68.8628 105.673 69.0196Z" fill="black"/>
<path d="M74.0391 72.366C73.6208 73.3072 73.2548 73.2026 72.5227 73.2026L71.0064 73.1503C69.0718 73.0458 66.928 72.8889 64.9933 72.6275C63.9476 72.4706 62.8495 72.3137 61.8038 72.0523C61.3855 71.9477 61.1241 71.5294 61.2286 71.1111C61.3332 70.7451 61.6469 70.4837 62.0129 70.536L65.0456 70.6928L68.0783 70.7974C69.0718 70.8497 71.6339 70.902 72.6273 70.9543C73.1502 70.9543 73.6208 71.0066 74.1437 70.8497C74.3528 70.7974 74.562 70.902 74.6142 71.1111C74.6665 71.2157 74.6142 71.268 74.6142 71.3726L74.0391 72.366Z" fill="black"/>
<path d="M96.3136 71.268C98.196 70.2222 103.163 68.7581 104.104 71.5817C104.523 72.3137 103.425 72.9934 102.954 72.2614C102.954 72.366 102.693 72.2614 102.588 72.2614C100.601 72.1046 98.562 72.4183 96.5751 72.5751C95.7385 72.6797 95.5816 71.5817 96.3136 71.268Z" fill="black"/>
<path d="M0.5 0.5H159.5V159.5H0.5V0.5Z" stroke="black"/>
<path d="M150.693 44.0784C182.431 105.203 126.64 174.17 60.1307 157.333C30.2744 149.908 6.27444 124.026 1.30712 93.6471C-4.33994 63.4248 9.30712 30.9542 34.8235 13.8562C69.8039 -10.1961 118.274 -2.19608 143.32 32.2091C143.477 32.366 143.425 32.6275 143.216 32.7843C143.059 32.9412 142.797 32.8889 142.64 32.6797C139.189 28.2353 135.268 24.2092 130.98 20.6013C123.922 14.5882 115.66 9.88235 106.928 6.69281C62.4836 -9.41177 13.6993 17.3595 3.97379 63.8431C-7.0066 115.922 37.281 163.869 90.0914 156.706C130.823 151.582 161.098 113.987 157.752 73.098C157.02 63.2157 154.405 53.4379 150.065 44.4444C149.961 44.2876 150.065 44.0784 150.222 43.9739C150.379 43.8693 150.588 43.9216 150.693 44.0784Z" fill="white"/>
</g>
</svg>
