<svg width="39" height="38" viewBox="0 0 39 38" fill="none" xmlns="http://www.w3.org/2000/svg">
<g clip-path="url(#clip0_10_271)">
<path d="M18.8452 0C28.2351 0.0109185 35.9872 6.57293 37.6705 15.3168C39.6667 25.6858 32.9046 35.4778 22.6448 37.5032C18.6887 38.2839 14.8272 37.909 11.144 36.1857C10.7073 35.9819 10.3233 35.9764 9.88291 36.1457C8.51264 36.6734 7.13509 37.1811 5.75572 37.6852C4.11248 38.2857 2.60027 38.0346 1.32463 36.8372C0.0253265 35.6179 -0.285851 34.0912 0.252795 32.4188C0.716831 30.9794 1.25002 29.56 1.77229 28.1388C1.92878 27.7111 1.91969 27.3435 1.71587 26.925C0.403834 24.2209 -0.142091 21.3584 0.0853781 18.3685C0.14361 17.5952 0.407474 16.8345 0.594908 16.072C0.640402 15.8864 0.749586 15.7099 0.855132 15.5443C1.42471 14.6581 2.41648 14.6872 2.92055 15.6171C3.35183 16.4141 3.38276 17.3022 3.43008 18.1811C3.53016 20.0118 3.5702 21.8515 4.07427 23.6313C4.26352 24.2991 4.48735 24.9633 4.77123 25.5966C5.3026 26.7867 5.33717 27.9568 4.84038 29.1633C4.27444 30.5354 3.72852 31.9148 3.19351 33.2978C2.85504 34.1731 3.2481 34.9465 4.08883 35.0629C4.34359 35.0975 4.63111 35.0265 4.88224 34.9428C6.29072 34.4733 7.69375 33.9947 9.09314 33.5016C10.1668 33.1231 11.1877 33.194 12.2158 33.6963C21.664 38.3057 33.1921 32.5608 35.2047 22.2501C36.9771 13.1604 31.1358 4.49478 22.0588 2.73144C19.3947 2.21463 16.7852 2.4421 14.1921 3.18274C13.6643 3.33378 13.0875 3.34106 12.5325 3.35744C12.123 3.37018 11.8082 3.15726 11.6717 2.74236C11.5371 2.33292 11.6572 1.96351 11.9702 1.71784C12.3359 1.43214 12.7399 1.17738 13.1621 0.988124C14.5378 0.371229 16.0155 0.198353 17.4986 0.0782492C18.0117 0.036395 18.5285 0.0181975 18.8434 0.00181975L18.8452 0Z" fill="white"/>
<path d="M16.8872 25.9515C16.707 26.7067 16.2357 26.976 15.6552 26.9851C14.8709 26.996 14.0684 27.0051 13.3023 26.8613C11.4425 26.5101 10.1559 24.9579 10.1122 23.018C10.0649 20.8816 10.0704 18.7434 10.1068 16.6071C10.1286 15.3587 10.6745 14.3196 11.6754 13.559C13.3514 12.2833 15.031 11.0113 16.7325 9.77026C18.1974 8.70206 20.0408 8.73482 21.5203 9.81939C23.1453 11.0113 24.7558 12.2215 26.3826 13.4116C27.5418 14.2596 28.1296 15.4006 28.1605 16.8236C28.2024 18.8089 28.2442 20.7943 28.2479 22.7796C28.2551 25.3819 26.4572 27.178 23.8441 27.1816C22.0862 27.1834 20.3283 27.1598 18.5723 27.0943C17.8698 27.0688 17.2438 26.7867 16.8854 25.9515H16.8872ZM16.8635 25.2836C17.1529 24.2591 17.6824 23.7477 18.7706 23.7477C20.4794 23.7496 22.1881 23.8733 23.895 23.9716C24.7721 24.0225 25.2598 23.6531 25.2944 22.7687C25.3745 20.7852 25.4273 18.8017 25.4946 16.8181C25.5146 16.2413 25.2799 15.7991 24.8231 15.4533C23.2672 14.2723 21.7186 13.0804 20.1609 11.8994C19.4039 11.3261 18.7761 11.3316 18.0081 11.9066C16.4686 13.0585 14.94 14.2268 13.3914 15.3696C12.8437 15.7736 12.5962 16.2722 12.598 16.9546C12.6071 18.8326 12.5816 20.7124 12.5744 22.5904C12.5744 22.7724 12.578 22.9543 12.5998 23.1345C12.7036 23.9661 13.3332 24.5321 14.1703 24.5375C14.6398 24.5412 15.1093 24.5011 15.5788 24.512C16.1302 24.5248 16.6197 24.6831 16.8635 25.2818V25.2836Z" fill="#8244FF"/>
<path d="M4.86032 9.01501C3.70114 9.02411 2.91319 8.30167 2.89681 7.21346C2.87862 6.03972 3.61561 5.24631 4.73112 5.23539C5.91942 5.22447 6.72739 6.09795 6.72739 7.39725C6.72739 8.33806 5.95763 9.00591 4.86032 9.01319V9.01501Z" fill="#FF9F24"/>
</g>
<defs>
<clipPath id="clip0_10_271">
<rect width="38.02" height="38" fill="white"/>
</clipPath>
</defs>
</svg>
