<svg width="38" height="38" viewBox="0 0 38 38" fill="none" xmlns="http://www.w3.org/2000/svg">
<g clip-path="url(#clip0_10_280)">
<path d="M15.1621 33.222C14.8099 33.9478 14.2555 34.1789 13.3979 33.9316C12.5413 33.6853 11.8925 33.1537 11.547 32.365C10.9082 30.9079 10.2683 29.4455 9.75167 27.944C9.09954 26.0486 7.87636 24.7728 5.95883 24.0893C4.67345 23.6315 3.39806 23.1454 2.13711 22.6268C0.298461 21.8706 -0.49588 19.8701 0.317347 18.0995C0.697298 17.2706 1.3461 16.6946 2.2171 16.3919C3.54582 15.9297 4.88231 15.486 6.22436 15.0585C8.16188 14.4401 9.51726 13.2359 10.2672 11.372C10.8715 9.8694 11.4992 8.37439 12.1414 6.8859C13.1057 4.65099 16.0375 4.20834 17.614 6.06354C17.8639 6.35755 18.0484 6.71991 18.1983 7.07576C18.796 8.49156 19.3815 9.91279 19.9481 11.3394C20.698 13.2261 22.0445 14.4846 24.0043 15.1377C25.313 15.5728 26.6195 16.0165 27.9115 16.4949C30.0324 17.2804 30.7278 19.7421 29.3325 21.4519C28.9203 21.9574 28.3837 22.284 27.7627 22.4966C26.4051 22.9632 25.0475 23.4329 23.6954 23.9124C22.0278 24.5048 20.8047 25.5886 20.1103 27.1824C19.4404 28.7186 18.8327 30.2809 18.2095 31.8366C17.8762 32.6677 17.3707 33.324 16.4519 33.5855C15.8731 33.7504 15.5209 33.6452 15.161 33.221L15.1621 33.222ZM15.0788 32.7534C15.4676 31.9842 15.8431 31.3159 16.1486 30.6183C16.7441 29.2621 17.3007 27.8897 17.8751 26.5249C18.8516 24.2065 20.5392 22.603 22.9511 21.7394C24.2764 21.2653 25.6074 20.8064 26.935 20.3409C27.456 20.1576 27.7238 19.8625 27.7038 19.4578C27.6804 18.9924 27.3849 18.7439 26.9561 18.5975C25.6518 18.1505 24.3498 17.6927 23.0477 17.237C20.5692 16.3691 18.8305 14.7471 17.8495 12.3571C17.234 10.8577 16.6186 9.3584 15.9986 7.86123C15.7976 7.37519 15.462 7.14736 15.0321 7.20052C14.6166 7.25151 14.3944 7.51623 14.2489 7.88184C13.6634 9.34756 13.0601 10.8068 12.4747 12.2714C11.5059 14.694 9.79056 16.3756 7.28866 17.2815C5.97883 17.7556 4.66789 18.2264 3.35473 18.6919C2.97367 18.8275 2.6937 19.0336 2.70592 19.4676C2.71815 19.8798 2.99478 20.0675 3.36362 20.1901C4.5779 20.5948 5.78219 21.0266 6.99981 21.4215C9.36061 22.1885 11.2026 23.5881 12.2525 25.8002C13.0546 27.4894 13.6678 29.2632 14.3666 30.9991C14.5922 31.56 14.8221 32.1209 15.0788 32.7544V32.7534Z" fill="white"/>
<path d="M29.3321 3.9838C29.2966 3.35564 29.2566 2.76219 29.2299 2.16766C29.2077 1.68054 29.2099 1.19233 29.1844 0.705207C29.1644 0.31681 29.3577 0.044498 29.7243 0.0271395C30.472 -0.00866251 31.2297 -0.0184267 31.9729 0.0575169C32.4695 0.108508 32.5462 0.364546 32.4251 0.84516C32.2284 1.62738 32.0507 2.41502 31.8818 3.20375C31.8329 3.42941 31.8396 3.66701 31.8162 3.95234C32.7428 3.9046 33.6216 3.85687 34.5003 3.81672C34.8847 3.79828 35.2714 3.80154 35.6557 3.78201C36.049 3.76248 36.3334 3.94474 36.3512 4.3071C36.3868 5.03833 36.399 5.77824 36.3212 6.50404C36.2701 6.98574 36.0046 7.06603 35.5147 6.94343C34.7981 6.76442 34.0793 6.58324 33.3527 6.45088C32.8394 6.35758 32.3106 6.34456 31.7674 6.29357C31.754 6.414 31.7374 6.49428 31.7374 6.57456C31.7285 7.86994 31.7274 9.16424 31.7007 10.4596C31.6985 10.579 31.5285 10.7905 31.4274 10.7959C30.8353 10.8231 30.2387 10.8209 29.6465 10.7883C29.3799 10.7732 29.3688 10.5605 29.3721 10.3186C29.391 8.98306 29.381 7.64754 29.381 6.27513C28.6555 6.27513 27.959 6.2773 27.2624 6.27513C26.7358 6.27296 26.207 6.28055 25.6826 6.24692C25.5537 6.23824 25.3338 6.08635 25.3293 5.99305C25.3015 5.40069 25.3049 4.80508 25.3493 4.2138C25.356 4.12701 25.6393 3.99682 25.7959 3.99357C26.9624 3.97512 28.129 3.9838 29.3332 3.9838H29.3321Z" fill="#8244FF"/>
<path d="M30.0284 33.4087C28.7819 33.4087 27.5854 33.3946 26.39 33.4184C26.1122 33.4238 25.9523 33.336 25.9423 33.1016C25.9178 32.5613 25.9178 32.0189 25.95 31.4786C25.9667 31.2009 26.1622 31.1282 26.4666 31.1358C27.6176 31.164 28.7686 31.1477 29.9717 31.1477C29.9529 30.7647 29.9317 30.4219 29.9195 30.078C29.8929 29.3261 29.8762 28.5743 29.8429 27.8225C29.8273 27.4666 30.0084 27.2203 30.3395 27.2073C31.116 27.178 31.8993 27.1672 32.6714 27.2388C33.1091 27.28 33.1802 27.5447 33.0736 27.9863C32.8247 29.0072 32.5958 30.0335 32.3403 31.1379C33.2324 31.087 33.9834 31.0381 34.7344 31.0034C35.2755 30.9785 35.8176 30.9752 36.3598 30.9589C36.6953 30.9492 36.9075 31.1032 36.9819 31.4157C37.1719 32.2033 37.1586 32.9942 36.9464 33.7721C36.8364 34.1746 36.6186 34.2104 36.1365 34.1117C35.0233 33.8849 33.9034 33.6929 32.7847 33.4933C32.6636 33.4716 32.5347 33.49 32.367 33.49C32.367 33.6734 32.367 33.8372 32.367 34.001C32.3614 35.1988 32.3481 36.3976 32.3559 37.5953C32.357 37.8448 32.2492 37.9837 32.0237 37.9891C31.4571 38.0022 30.8894 38.0022 30.3239 37.9729C30.0651 37.9588 30.0173 37.7656 30.0195 37.5161C30.0351 36.1806 30.0273 34.8451 30.0273 33.4065L30.0284 33.4087Z" fill="#16F8B6"/>
</g>
<defs>
<clipPath id="clip0_10_280">
<rect width="37.1163" height="38" fill="white"/>
</clipPath>
</defs>
</svg>
