<svg width="40" height="38" viewBox="0 0 40 38" fill="none" xmlns="http://www.w3.org/2000/svg">
<g clip-path="url(#clip0_10_289)">
<path d="M19.0382 0.0219008C22.7954 0.0219008 26.5549 -0.0365757 30.3108 0.03652C35.2338 0.132763 38.9605 5.08621 37.7812 9.8618C37.7251 10.0884 37.652 10.3138 37.5558 10.527C37.3377 11.0106 37.0064 11.3651 36.4362 11.4005C35.8332 11.437 35.302 11.2165 35.0706 10.6756C34.7977 10.0397 34.6429 9.34769 34.4943 8.66668C34.3749 8.11846 34.381 7.54344 34.2641 6.99523C33.7914 4.79261 32.0078 3.27709 29.7236 3.21618C24.0429 3.06268 18.3597 2.9372 12.6777 2.82512C10.8795 2.78979 9.07286 2.73619 7.2808 2.86167C4.8589 3.03101 2.77933 5.27748 2.62583 7.70182C2.60511 8.02953 2.59293 8.35846 2.59293 8.68739C2.59781 13.9795 2.61364 19.2716 2.60633 24.565C2.60268 27.0381 3.68084 28.8192 5.91269 29.8851C6.73502 30.2786 7.62801 30.3529 8.52465 30.359C9.79164 30.3676 11.0586 30.3566 12.3244 30.381C12.5973 30.3858 12.8787 30.4821 13.137 30.5844C13.5524 30.7489 13.7827 31.0754 13.7888 31.5286C13.7948 31.9659 13.6365 32.3497 13.2259 32.5349C12.8897 32.6859 12.5132 32.8443 12.1575 32.8406C10.2363 32.8175 8.27368 32.9807 6.40487 32.6396C2.55517 31.9318 0.0601674 28.718 0.0297109 24.6953C-0.01171 19.2156 -0.00805518 13.7346 0.0297109 8.25491C0.0565127 4.32358 2.66725 1.14879 6.46457 0.376415C7.23816 0.219259 8.05074 0.21195 8.84505 0.208295C12.2428 0.191239 15.6405 0.200985 19.0382 0.200985C19.0382 0.14129 19.0382 0.0815956 19.0382 0.0231191V0.0219008Z" fill="#1FCFF1"/>
<path d="M28.5133 15.8983C28.8191 15.0918 29.2759 14.8335 30.1591 15.0979C32.9307 15.9263 34.9055 17.6185 35.6291 20.496C36.3296 23.2822 35.5475 25.6858 33.5118 27.6911C33.4253 27.7764 33.3023 27.8263 33.2109 27.8836C34.0564 28.3977 34.8531 28.8033 35.5621 29.3296C37.9316 31.0888 39.3936 33.4193 39.7919 36.3687C39.9308 37.3933 39.3948 37.9805 38.358 37.9988C38.1387 38.0024 37.9182 38.0024 37.7014 37.9756C36.6598 37.8502 36.2492 37.4116 36.1737 36.3639C35.9118 32.7395 32.9319 29.9181 29.299 29.7049C25.4518 29.4783 21.6069 32.1146 20.6287 36.4686C20.5885 36.6502 20.5897 36.8414 20.58 37.0278C20.5507 37.6199 20.3278 37.8806 19.7467 37.9744C19.5932 37.9988 19.4348 38 19.2789 38C18.1946 38.0049 17.8559 37.5602 18.0411 36.5015C18.4906 33.9359 19.581 31.7077 21.5339 29.9668C22.2843 29.298 23.1578 28.7692 23.8997 28.2308C23.3125 27.5132 22.5913 26.8042 22.0735 25.9685C19.6894 22.1127 21.4802 16.9058 25.7125 15.2721C25.9878 15.1661 26.279 15.0906 26.5689 15.0321C27.5435 14.8348 28.043 15.0638 28.5121 15.8995L28.5133 15.8983ZM28.5328 16.8546C28.4268 17.9377 27.7689 18.4359 26.804 18.7259C25.0839 19.2437 23.9899 20.7665 23.9692 22.5585C23.9387 25.1766 26.1547 27.2147 28.8885 27.0856C31.113 26.9796 33.0964 25.0389 33.2681 22.7998C33.4582 20.3145 31.9098 18.0948 29.645 17.6416C29.1529 17.543 28.7496 17.3785 28.5328 16.8546Z" fill="white"/>
</g>
<defs>
<clipPath id="clip0_10_289">
<rect width="39.814" height="38" fill="white"/>
</clipPath>
</defs>
</svg>
